<?xml version="1.0" encoding="UTF-8"?>
<!DOCTYPE svg PUBLIC "-//W3C//DTD SVG 1.1//EN" "http://www.w3.org/Graphics/SVG/1.1/DTD/svg11.dtd">
<!-- Creator: CorelDRAW X7 -->
<svg xmlns="http://www.w3.org/2000/svg" xml:space="preserve" width="70.9082mm" height="70.9082mm" version="1.1" style="shape-rendering:geometricPrecision; text-rendering:geometricPrecision; image-rendering:optimizeQuality; fill-rule:evenodd; clip-rule:evenodd"
viewBox="0 0 7091 7091"
 xmlns:xlink="http://www.w3.org/1999/xlink">
 <defs>
  <style type="text/css">
   <![CDATA[
    .fil0 {fill:#3F5D72;fill-rule:nonzero}
    .fil2 {fill:#999999;fill-rule:nonzero}
    .fil1 {fill:#E6E6E6;fill-rule:nonzero}
   ]]>
  </style>
 </defs>
 <g id="objects">
  <metadata id="CorelCorpID_0Corel-Layer"/>
  <path class="fil0" d="M7084 3545c0,1955 -1584,3539 -3539,3539 -1954,0 -3538,-1584 -3538,-3539 0,-1954 1584,-3538 3538,-3538 1955,0 3539,1584 3539,3538z"/>
  <polygon class="fil1" points="3852,6009 3562,6346 2935,6009 2935,3032 3852,3032 "/>
  <polygon class="fil2" points="4170,5271 4170,5027 3831,4831 4170,4636 4170,4389 3832,4194 4170,3999 4170,3052 3550,3045 3535,3045 3535,6339 3554,6346 4170,6009 4170,5669 3826,5468 "/>
  <path class="fil1" d="M4881 2175c0,738 -599,1337 -1338,1337 -738,0 -1337,-599 -1337,-1337 0,-739 599,-1338 1337,-1338 739,0 1338,599 1338,1338zm-1338 -1017l0 0c-266,0 -483,216 -483,483 0,267 217,483 483,483 267,0 484,-216 484,-483 0,-267 -217,-483 -484,-483z"/>
 </g>
</svg>
